<svg xmlns="http://www.w3.org/2000/svg" viewBox="0 0 16 16" enable-background="new 0 0 16 16"><path fill="#B146C2" d="M8 15.1c-2.311 0-4.485-1.137-5.818-3.042l-.11-.158h11.857l-.11.157c-1.334 1.906-3.508 3.043-5.819 3.043zm-5.928-11l.11-.157c1.333-1.905 3.507-3.043 5.818-3.043s4.485 1.138 5.818 3.043l.11.157h-11.856z"/><path fill="#fff" d="M1.622 11.1l-.027-.057c-.461-.967-.695-1.99-.695-3.043 0-1.053.234-2.077.695-3.043l.027-.057h12.756l.026.057c.462.967.696 1.991.696 3.043s-.233 2.076-.695 3.043l-.027.057h-12.756z"/><g fill="#2B2B2B"><path d="M8 0c-4.411 0-8 3.589-8 8s3.589 8 8 8 8-3.589 8-8-3.589-8-8-8zm0 1c2.372 0 4.469 1.189 5.736 3h-11.472c1.266-1.811 3.363-3 5.736-3zm0 14c-2.372 0-4.47-1.189-5.736-3h11.472c-1.267 1.811-3.364 3-5.736 3zm6.315-4h-12.63c-.434-.911-.685-1.925-.685-3s.251-2.089.685-3h12.63c.435.911.685 1.925.685 3s-.25 2.089-.685 3zM4.538 10l1.346-3.26h.609l-1.352 3.26h-.603zm3.185-.392c-.408 0-.74-.132-.988-.392-.246-.256-.372-.598-.372-1.014 0-.445.14-.812.416-1.089.276-.276.629-.417 1.05-.417.266 0 .491.039.67.116l.061.026v.675l-.15-.091c-.161-.096-.337-.143-.535-.143-.258 0-.461.079-.619.242-.157.162-.236.383-.236.659 0 .265.072.468.219.622.146.152.336.226.578.226.228 0 .426-.054.59-.16l.154-.1v.646l-.054.029c-.21.11-.474.165-.784.165zm-3.879 0c-.408 0-.74-.132-.988-.392-.247-.256-.372-.598-.372-1.014 0-.445.14-.812.417-1.089.276-.277.629-.417 1.049-.417.266 0 .491.039.67.116l.061.026v.675l-.151-.091c-.159-.095-.339-.143-.534-.143-.258 0-.461.079-.619.242-.157.162-.237.383-.237.659 0 .265.072.468.219.622.146.152.336.226.578.226.228 0 .426-.054.59-.16l.154-.1v.646l-.053.029c-.21.11-.474.165-.784.165zm8.448-.254v-.723h-.723v-.502h.723v-.725h.502v.726h.723v.502h-.723v.723h-.502zm-2.604 0v-.723h-.723v-.502h.723v-.725h.502v.726h.723v.502h-.723v.723h-.502z"/></g></svg>